<?xml version="1.0" standalone="no"?><!DOCTYPE svg PUBLIC "-//W3C//DTD SVG 1.1//EN" "http://www.w3.org/Graphics/SVG/1.1/DTD/svg11.dtd"><svg t="1563970628865" class="icon" viewBox="0 0 1024 1024" version="1.1" xmlns="http://www.w3.org/2000/svg" p-id="2603" width="30" height="30" xmlns:xlink="http://www.w3.org/1999/xlink"><defs><style type="text/css"></style></defs><path d="M256 384h128v-128h-128v128z m0 192h128v-128h-128v128z m0 192h128v-128h-128v128z m192-384h320v-128H448v128zM832 0H192a192 192 0 0 0-192 192v640c0 105.984 85.952 192 192 192h640c106.048 0 192-86.016 192-192V192a192 192 0 0 0-192-192z m64 832c0 35.392-28.608 64-64 64H192c-35.392 0-64-28.608-64-64V192a64 64 0 0 1 64-64h640a64 64 0 0 1 64 64v640zM448 576h320v-128H448v128z m0 192h320v-128H448v128z" p-id="2604" fill="#ffffff"></path></svg>