<?xml version="1.0" standalone="no"?><!DOCTYPE svg PUBLIC "-//W3C//DTD SVG 1.1//EN" "http://www.w3.org/Graphics/SVG/1.1/DTD/svg11.dtd"><svg t="1563971631737" class="icon" viewBox="0 0 1138 1024" version="1.1" xmlns="http://www.w3.org/2000/svg" p-id="4674" xmlns:xlink="http://www.w3.org/1999/xlink" width="33.33984375" height="30"><defs><style type="text/css"></style></defs><path d="M906.026 797.557c-19.865-19.547-19.865-45.607 0-65.154 125.806-123.791 125.806-319.253 0-443.045-19.865-19.547-19.865-45.607 0-65.154 19.863-19.546 46.35-19.546 66.214 0 79.457 78.185 125.807 175.915 125.807 280.162s-46.35 208.492-125.807 280.161c-6.622 6.516-19.865 13.031-33.107 13.031-13.243 13.031-26.486 6.516-33.107 0z m-132.429-71.669c-13.243 0-26.485-6.516-33.107-13.031-19.865-19.546-19.865-45.607 0-65.153 79.457-78.185 79.457-195.461 0-273.646-19.865-19.547-19.865-45.607 0-65.153 19.865-19.547 46.35-19.547 66.214 0 119.185 110.761 119.185 286.676 0 397.438-13.243 13.03-19.865 19.546-33.107 19.546zM528.605 54.804c59.593-45.607 105.943-19.547 105.943 52.123v814.422c0 71.669-46.35 91.215-99.322 45.607L296.855 771.495H164.427c-72.836 0-132.428-58.639-132.428-130.308v-267.13c0-71.669 59.591-130.308 132.428-130.308h125.806L528.604 54.803z" p-id="4675" fill="#ffffff"></path></svg>